<svg xmlns="http://www.w3.org/2000/svg" viewBox="0 0 360 360" fill="none" shape-rendering="auto" aria-hidden="true" width="512" height="512"><metadata xmlns:rdf="http://www.w3.org/1999/02/22-rdf-syntax-ns#" xmlns:xsi="http://www.w3.org/2001/XMLSchema-instance" xmlns:dc="http://purl.org/dc/elements/1.1/" xmlns:dcterms="http://purl.org/dc/terms/"><rdf:RDF><rdf:Description><dc:title>Avatar Illustration System</dc:title><dc:creator>Micah Lanier</dc:creator><dc:source xsi:type="dcterms:URI">https://www.figma.com/community/file/829741575478342595</dc:source><dcterms:license xsi:type="dcterms:URI">https://creativecommons.org/licenses/by/4.0/</dcterms:license><dc:rights>Remix of “Avatar Illustration System” (https://www.figma.com/community/file/829741575478342595) by “Micah Lanier”, licensed under “CC BY 4.0” (https://creativecommons.org/licenses/by/4.0/)</dc:rights></rdf:Description></rdf:RDF></metadata><defs><g id="head-standard-7dff0831"><path d="M140.05 297.55c-14.4-20-25.67-58.67-27-78l-68.5-29.5-28.5 107.5z" fill="#f9c9b6" stroke="black" stroke-width="4"/><path d="M116.42 241.74q-3.15.3-6.37.3c-30.78 0-56.05-21.56-58.76-49.09l61.76 26.6c.38 5.48 1.55 13.31 3.37 22.19" fill="black" style="mix-blend-mode:multiply"/><path d="M60.1 4.1a75.7 75.7 0 0 1 91.16 55.5l.05.23.02.06.05.2.05.2 16.4 68.42.08.34.08.34v.01l.1.4.14.64a75.72 75.72 0 0 1-147.25 35.28l-.2-.72L4.06 95.16 4 94.89A75.7 75.7 0 0 1 60.09 4.1Z" fill="#f9c9b6" stroke="black" stroke-width="4"/></g><g id="mouth-laughing-7dff0831"><path d="M77.6 25.82a36 36 0 0 0 1.18-12.54 4.98 4.98 0 0 0-6.8-4.2c-4.26 1.67-18.03 6.87-27.62 8.2-10.53 1.44-26.66-.33-31.44-.92a4.98 4.98 0 0 0-5.54 5.74 36 36 0 0 0 70.22 3.72" fill="#000000"/><path d="M64.7 39.67a32 32 0 0 1-37.2 4.6 21.5 21.5 0 0 1 37.2-4.6" fill="#FC909F"/></g><g id="eyebrows-up-7dff0831"><path d="M81.07 13.21c5.67-2.66 19-5.1 27 6.5M5.65 38.52c2.07-5.9 9.7-17.12 23.57-14.7" stroke="#000000" stroke-width="4" stroke-linecap="round"/></g><g id="hair-turban-7dff0831"><path d="M247.73 112.8C247.73 46.7 211.27 2 166.86 2 109.96 2 52 23.34 52 124.25c0 24.97 10.66 43.58 25.56 57.29a43 43 0 0 1-3.5-4.92c-2.88-26.98 29.17-47.7 60.54-67.95 16.65-10.76 33.11-21.4 44.05-32.77 9.6 5.43 37.79 28.2 43.16 37.42 2.88 4.94 7.5 21.87 10.67 41.63 10.34-12.42 15.25-24.84 15.25-42.16Z" fill="#fc909f" stroke="black" stroke-width="4"/><path d="M179.26 75.25c13.18-11.95 32.89-39.21 31.62-56.92" stroke="black" stroke-width="4"/></g><g id="eyes-round-7dff0831"><ellipse cx="58.12" cy="36.93" rx="9" ry="10" transform="rotate(-6.78 58.12 36.93)" fill="#000000"/><ellipse cx="122.15" cy="26.92" rx="9" ry="10" transform="rotate(-6.28 122.15 26.92)" fill="#000000"/></g><g id="nose-tound-7dff0831"><path d="M2.7 9.34c5.45-1.24 14.38.62 12.42 10.54C13.37 28.7 4 29.18 1.4 26.7" stroke="black" stroke-width="4"/></g><g id="clothes-collared-7dff0831"><path d="M80.43 22.41q2.4-.55 6.5.38c2.7.63 5.77 1.73 9.08 3.19 6.63 2.9 14.02 7.16 20.98 11.56a355 355 0 0 1 25.2 17.63l.4.3.1.08v.02l1.71 1.35 1.18-1.83.01-.02.05-.06.18-.26.67-.98A112 112 0 0 1 158 39.72c3.67-3.77 7.83-7.4 12.13-9.93 4.32-2.53 8.58-3.84 12.53-3.3C225.16 32.2 256.38 51 276.65 79H3.35c16.3-29.34 39.5-48.02 77.08-56.59Z" fill="#6bd9e9" stroke="black" stroke-width="4"/><path d="m68.6 25.08 5.16-19.23c.2-.78 1.22-1 1.76-.4 14.87 16.26 33.62 15.63 39.85 14.88.84-.1 1.5.82 1.1 1.58l-13.15 25a.9.9 0 0 1-1.04.5c-3.95-.8-23.62-5.6-33.57-21.5a1 1 0 0 1-.11-.74Zm130.58-.1L187.6 5.5c-.4-.66-1.36-.65-1.78 0-5.74 8.83-15.63 12.9-19.1 14.1-.62.22-.9.96-.57 1.53l13.5 22.81c.2.34.59.53.97.42 2.13-.61 9.46-3.67 18.54-18.34.2-.31.2-.72.02-1.04Z" fill="#6bd9e9" stroke="black" stroke-width="4"/><path d="m68.6 25.08 5.16-19.23c.2-.78 1.22-1 1.76-.4 14.87 16.26 33.62 15.63 39.85 14.88.84-.1 1.5.82 1.1 1.58l-13.15 25a.9.9 0 0 1-1.04.5c-3.95-.8-23.62-5.6-33.57-21.5a1 1 0 0 1-.11-.74Zm130.58-.1L187.6 5.5c-.4-.66-1.36-.65-1.78 0-5.74 8.83-15.63 12.9-19.1 14.1-.62.22-.9.96-.57 1.53l13.5 22.81c.2.34.59.53.97.42 2.13-.61 9.46-3.67 18.54-18.34.2-.31.2-.72.02-1.04Z" fill="white" fill-opacity=".75" stroke="black" stroke-width="4"/><path d="m125.48 42.5-9-21.5-7 15zm31.5-1 9-21.5 7 15zM86.48 2l-12 3 10 6.5zm89.5 0 11 3-7 6.5z" fill="black" stroke="black" stroke-width="4" stroke-linejoin="round"/></g><clipPath id="clip-7dff0831"><rect width="360" height="360" rx="0" ry="0"/></clipPath></defs><g clip-path="url(#clip-7dff0831)"><g transform="rotate(-1, 180, 180)"><use transform="translate(93.95 44.95)" href="#head-standard-7dff0831"/><use transform="translate(157.13 182.89)" href="#mouth-laughing-7dff0831"/><use transform="translate(127.93 99)" href="#eyebrows-up-7dff0831"/><use transform="translate(24 -1)" href="#hair-turban-7dff0831"/><use transform="translate(100 111)" href="#eyes-round-7dff0831"/><use transform="rotate(-8 1175.7 -1254.11)" href="#nose-tound-7dff0831"/><use transform="translate(37.02 284)" href="#clothes-collared-7dff0831"/></g></g></svg>